<?xml version="1.0" encoding="UTF-8"?>
<svg xmlns="http://www.w3.org/2000/svg" xmlns:xlink="http://www.w3.org/1999/xlink" width="100px" height="100px" viewBox="0 0 100 100" version="1.1">
<g id="surface1">
<path style=" stroke:none;fill-rule:nonzero;fill:rgb(0%,0%,0%);fill-opacity:1;" d="M 12.910156 51.429688 C 11.558594 49.082031 10.972656 46.574219 11.117188 43.914062 C 11.324219 40.167969 12.671875 36.929688 15.578125 34.445312 C 15.910156 34.160156 16.269531 33.90625 16.632812 33.664062 C 16.9375 33.460938 17.269531 33.445312 17.507812 33.753906 C 17.742188 34.050781 17.570312 34.308594 17.328125 34.511719 C 17.113281 34.691406 17.117188 34.851562 17.257812 35.097656 C 17.816406 36.054688 17.808594 36.0625 18.734375 35.5 C 23.089844 32.878906 28.765625 33.644531 32.03125 37.277344 C 33.660156 39.085938 34.542969 41.199219 34.707031 43.617188 C 34.957031 47.285156 33.78125 50.386719 30.984375 52.828125 C 30.886719 52.914062 30.765625 52.976562 30.675781 53.070312 C 30.503906 53.246094 30.097656 53.28125 30.164062 53.582031 C 30.261719 54.019531 30.507812 54.421875 30.800781 54.773438 C 30.890625 54.882812 31.015625 54.792969 31.117188 54.757812 C 31.457031 54.648438 31.753906 54.710938 31.894531 55.054688 C 32.039062 55.414062 31.792969 55.640625 31.527344 55.816406 C 30.304688 56.617188 28.984375 57.199219 27.566406 57.539062 C 26.902344 57.699219 26.234375 57.835938 25.546875 57.847656 C 25.113281 57.851562 24.964844 58.042969 25.074219 58.46875 C 25.136719 58.71875 25.125 58.984375 25.164062 59.242188 C 25.402344 60.6875 26.359375 61.496094 27.648438 61.988281 C 28.449219 62.292969 29.316406 62.414062 30.085938 62.824219 C 30.496094 63.046875 30.796875 63.335938 30.875 63.8125 C 30.929688 64.15625 30.839844 64.394531 30.445312 64.414062 C 30.199219 64.425781 29.957031 64.449219 29.714844 64.449219 C 26.949219 64.433594 24.183594 64.414062 21.417969 64.398438 C 20.359375 64.394531 19.304688 64.402344 18.246094 64.394531 C 17.71875 64.390625 17.558594 64.144531 17.71875 63.640625 C 17.820312 63.308594 18.019531 63.078125 18.324219 62.914062 C 19 62.542969 19.738281 62.339844 20.472656 62.128906 C 21.578125 61.808594 22.472656 61.199219 23.03125 60.167969 C 23.347656 59.578125 23.386719 58.929688 23.40625 58.273438 C 23.417969 57.957031 23.277344 57.871094 22.976562 57.835938 C 20.351562 57.519531 17.972656 56.585938 15.90625 54.921875 C 14.703125 53.953125 13.714844 52.792969 12.910156 51.429688 M 16.800781 52 C 14.296875 49.253906 13.367188 46.050781 14.039062 42.398438 C 14.398438 40.417969 15.226562 38.65625 16.628906 37.1875 C 16.773438 37.035156 16.957031 36.882812 16.832031 36.640625 C 16.648438 36.28125 16.484375 35.910156 16.117188 35.554688 C 13.445312 38.027344 12.234375 41.074219 12.304688 44.652344 C 12.410156 49.820312 14.824219 53.582031 19.496094 55.71875 C 22.917969 57.289062 26.414062 57.175781 29.792969 55.417969 C 29.75 55.085938 29.59375 54.910156 29.492188 54.710938 C 29.144531 54.050781 29.144531 54.058594 28.46875 54.34375 C 26.613281 55.136719 24.6875 55.382812 22.695312 55.054688 C 20.425781 54.679688 18.480469 53.664062 16.800781 52 M 23.148438 45.070312 C 23.316406 44.96875 23.480469 44.863281 23.652344 44.773438 C 23.851562 44.664062 23.875 44.523438 23.773438 44.332031 C 23.277344 43.417969 22.785156 42.503906 22.292969 41.589844 C 22.171875 41.363281 22.019531 41.296875 21.78125 41.4375 C 20.914062 41.949219 20.042969 42.457031 19.167969 42.953125 C 18.886719 43.109375 18.835938 43.3125 18.921875 43.597656 C 19.207031 44.515625 19.546875 45.40625 19.96875 46.269531 C 20.125 46.59375 20.300781 46.652344 20.617188 46.472656 C 21.433594 46.003906 22.261719 45.558594 23.148438 45.070312 M 20.875 47.765625 C 21.417969 48.738281 22.105469 49.597656 22.839844 50.429688 C 23.019531 50.632812 23.195312 50.667969 23.433594 50.527344 C 24.25 50.050781 25.066406 49.582031 25.890625 49.121094 C 26.203125 48.949219 26.230469 48.753906 26.0625 48.449219 C 25.589844 47.613281 25.132812 46.769531 24.695312 45.914062 C 24.515625 45.558594 24.324219 45.550781 24.011719 45.734375 C 23.101562 46.273438 22.175781 46.785156 21.261719 47.316406 C 21.101562 47.410156 20.882812 47.460938 20.875 47.765625 M 28.351562 42.089844 C 28.355469 42.039062 28.378906 41.984375 28.359375 41.945312 C 27.851562 40.921875 27.195312 40 26.425781 39.160156 C 26.242188 38.960938 26.054688 39.007812 25.855469 39.121094 C 25.027344 39.59375 24.195312 40.070312 23.359375 40.539062 C 23.15625 40.652344 23.078125 40.792969 23.199219 41.011719 C 23.699219 41.941406 24.199219 42.867188 24.703125 43.796875 C 24.816406 44.007812 24.96875 44.046875 25.183594 43.921875 C 26.222656 43.324219 27.269531 42.734375 28.351562 42.089844 M 29.65625 44.988281 C 29.496094 44.511719 29.328125 44.039062 29.167969 43.558594 C 29.03125 43.152344 28.824219 43.011719 28.414062 43.277344 C 28.019531 43.535156 27.589844 43.738281 27.183594 43.972656 C 26.597656 44.3125 25.984375 44.613281 25.429688 45.027344 C 25.984375 46.054688 26.519531 47.035156 27.050781 48.023438 C 27.179688 48.261719 27.332031 48.292969 27.566406 48.164062 C 28.28125 47.777344 29 47.394531 29.71875 47.019531 C 29.992188 46.878906 30.09375 46.6875 30.011719 46.386719 C 29.890625 45.949219 29.785156 45.503906 29.65625 44.988281 M 20.808594 49.644531 C 20.53125 49.246094 20.253906 48.84375 19.976562 48.445312 C 19.882812 48.304688 19.777344 48.167969 19.585938 48.273438 C 18.609375 48.808594 17.632812 49.34375 16.671875 49.875 C 16.699219 49.996094 16.699219 50.050781 16.722656 50.085938 C 17.417969 51.132812 18.308594 51.964844 19.402344 52.582031 C 19.558594 52.667969 19.675781 52.613281 19.808594 52.539062 C 20.460938 52.175781 21.109375 51.808594 21.765625 51.453125 C 22.058594 51.296875 22.078125 51.128906 21.863281 50.882812 C 21.515625 50.496094 21.1875 50.09375 20.808594 49.644531 M 14.976562 45.769531 C 15.105469 46.777344 15.394531 47.734375 15.835938 48.652344 C 15.964844 48.914062 16.085938 49.035156 16.390625 48.855469 C 17.1875 48.382812 17.996094 47.925781 18.808594 47.480469 C 19.128906 47.304688 19.214844 47.109375 19.035156 46.777344 C 18.625 46.015625 18.324219 45.210938 18.046875 44.394531 C 17.882812 43.910156 17.71875 43.84375 17.292969 44.089844 C 16.617188 44.484375 15.949219 44.890625 15.285156 45.296875 C 15.132812 45.386719 14.957031 45.46875 14.976562 45.769531 M 31.496094 46.058594 C 32.097656 45.738281 32.695312 45.410156 33.300781 45.09375 C 33.558594 44.960938 33.671875 44.761719 33.660156 44.464844 C 33.636719 43.605469 33.53125 42.757812 33.28125 41.929688 C 33.171875 41.566406 33.113281 41.175781 32.8125 40.859375 C 31.921875 41.359375 31.042969 41.847656 30.164062 42.332031 C 29.921875 42.460938 29.925781 42.632812 30.007812 42.859375 C 30.230469 43.503906 30.449219 44.148438 30.65625 44.796875 C 30.761719 45.136719 30.804688 45.496094 30.929688 45.828125 C 31.003906 46.023438 31.101562 46.335938 31.496094 46.058594 M 31.625 38.640625 C 31.164062 38.046875 30.667969 37.492188 30.054688 37.054688 C 29.925781 36.960938 29.8125 36.847656 29.621094 36.960938 C 28.925781 37.375 28.222656 37.777344 27.527344 38.191406 C 27.339844 38.300781 27.222656 38.441406 27.402344 38.660156 C 28.078125 39.472656 28.671875 40.339844 29.234375 41.234375 C 29.320312 41.375 29.4375 41.515625 29.628906 41.417969 C 30.566406 40.945312 31.488281 40.445312 32.390625 39.886719 C 32.21875 39.410156 31.925781 39.0625 31.625 38.640625 M 20.34375 38.097656 C 20.136719 37.726562 19.9375 37.351562 19.636719 37.050781 C 19.3125 36.730469 19.046875 36.757812 18.796875 37.128906 C 18.59375 37.429688 18.449219 37.753906 18.382812 38.109375 C 18.167969 39.296875 18.3125 40.46875 18.496094 41.640625 C 18.546875 41.960938 18.742188 41.996094 18.992188 41.847656 C 19.75 41.40625 20.503906 40.957031 21.265625 40.519531 C 21.542969 40.363281 21.566406 40.1875 21.410156 39.925781 C 21.054688 39.34375 20.722656 38.75 20.34375 38.097656 M 23.988281 37 C 23.417969 36.652344 22.832031 36.339844 22.195312 36.128906 C 21.742188 35.980469 21.285156 35.886719 20.808594 35.984375 C 20.570312 36.035156 20.324219 36.164062 20.519531 36.449219 C 21.183594 37.433594 21.738281 38.480469 22.363281 39.488281 C 22.460938 39.648438 22.585938 39.765625 22.800781 39.640625 C 23.53125 39.222656 24.269531 38.8125 24.996094 38.382812 C 25.289062 38.210938 25.300781 37.96875 25.027344 37.757812 C 24.707031 37.511719 24.371094 37.277344 23.988281 37 M 17.070312 42.992188 C 17.613281 42.796875 17.601562 42.363281 17.523438 41.910156 C 17.359375 40.949219 17.261719 39.980469 17.25 39.003906 C 17.246094 38.832031 17.300781 38.640625 17.140625 38.5 C 16.019531 39.03125 14.558594 43.011719 15.125 44.125 C 15.753906 43.757812 16.382812 43.394531 17.070312 42.992188 M 25.335938 52.347656 C 25.460938 52.421875 25.585938 52.496094 25.71875 52.558594 C 26.378906 52.886719 27.046875 53.171875 27.808594 53.09375 C 28.335938 53.039062 28.464844 52.855469 28.226562 52.402344 C 27.839844 51.671875 27.421875 50.957031 27.023438 50.230469 C 26.878906 49.960938 26.703125 49.902344 26.433594 50.0625 C 25.972656 50.335938 25.496094 50.578125 25.039062 50.859375 C 24.730469 51.046875 24.363281 51.15625 24.082031 51.488281 C 24.503906 51.78125 24.890625 52.046875 25.335938 52.347656 M 25.679688 35.105469 C 24.78125 35.035156 23.875 34.835938 22.933594 35.167969 C 23.023438 35.265625 23.046875 35.316406 23.085938 35.332031 C 24.207031 35.863281 25.246094 36.519531 26.191406 37.324219 C 26.316406 37.429688 26.46875 37.511719 26.640625 37.429688 C 27.339844 37.097656 28.003906 36.710938 28.726562 36.222656 C 27.769531 35.589844 26.765625 35.359375 25.679688 35.105469 M 28.171875 50.113281 C 28.570312 50.808594 28.835938 51.585938 29.40625 52.21875 C 29.492188 52.128906 29.558594 52.078125 29.597656 52.015625 C 30.3125 50.894531 30.332031 49.648438 30.242188 48.386719 C 30.222656 48.097656 30.027344 48.101562 29.820312 48.207031 C 29.316406 48.46875 28.824219 48.757812 28.308594 49 C 27.867188 49.207031 27.714844 49.457031 28.042969 49.878906 C 28.082031 49.929688 28.105469 49.992188 28.171875 50.113281 M 23.199219 52.152344 C 23.09375 52.082031 22.988281 51.960938 22.855469 52.03125 C 22.148438 52.402344 21.445312 52.785156 20.710938 53.183594 C 21.828125 54.058594 24.929688 54.4375 25.867188 53.8125 C 24.917969 53.34375 24.035156 52.851562 23.199219 52.152344 M 31.585938 47.265625 C 31.335938 47.378906 31.144531 47.511719 31.199219 47.851562 C 31.328125 48.65625 31.308594 49.464844 31.207031 50.277344 C 31.183594 50.464844 31.089844 50.683594 31.253906 50.875 C 31.320312 50.84375 31.375 50.832031 31.402344 50.800781 C 32.410156 49.65625 33.082031 48.339844 33.4375 46.859375 C 33.46875 46.726562 33.460938 46.613281 33.335938 46.515625 C 33.207031 46.414062 33.097656 46.449219 32.976562 46.511719 C 32.535156 46.753906 32.089844 46.992188 31.585938 47.265625 Z M 31.585938 47.265625 "/>
<path style=" stroke:none;fill-rule:nonzero;fill:rgb(0%,0%,0%);fill-opacity:1;" d="M 47.265625 34.5625 C 47.621094 34.558594 47.929688 34.550781 48.238281 34.550781 C 48.421875 34.550781 48.558594 34.609375 48.558594 34.828125 C 48.5625 35.007812 48.53125 35.148438 48.316406 35.179688 C 47.738281 35.269531 47.304688 35.628906 46.914062 36.015625 C 46.242188 36.679688 45.613281 37.382812 44.960938 38.0625 C 44.753906 38.273438 44.742188 38.464844 44.921875 38.703125 C 45.910156 39.996094 46.882812 41.300781 47.867188 42.59375 C 48.070312 42.855469 48.328125 43.054688 48.664062 43.128906 C 48.90625 43.179688 48.976562 43.328125 48.945312 43.554688 C 48.914062 43.789062 48.730469 43.769531 48.574219 43.773438 C 47.5625 43.777344 46.554688 43.777344 45.546875 43.777344 C 45.371094 43.777344 45.167969 43.792969 45.132812 43.542969 C 45.101562 43.304688 45.257812 43.265625 45.453125 43.210938 C 45.882812 43.089844 45.960938 42.863281 45.691406 42.488281 C 45.03125 41.582031 44.355469 40.6875 43.675781 39.792969 C 43.574219 39.65625 43.453125 39.464844 43.242188 39.554688 C 43.066406 39.628906 43.097656 39.832031 43.105469 39.992188 C 43.128906 40.800781 43.042969 41.613281 43.160156 42.425781 C 43.21875 42.859375 43.429688 43.101562 43.867188 43.15625 C 44.0625 43.179688 44.269531 43.214844 44.253906 43.492188 C 44.238281 43.816406 43.992188 43.773438 43.789062 43.773438 C 42.761719 43.777344 41.738281 43.777344 40.714844 43.773438 C 40.511719 43.769531 40.253906 43.824219 40.222656 43.511719 C 40.191406 43.203125 40.453125 43.199219 40.648438 43.152344 C 41.253906 43.003906 41.460938 42.796875 41.464844 42.183594 C 41.476562 40.167969 41.476562 38.148438 41.464844 36.132812 C 41.460938 35.457031 41.324219 35.324219 40.613281 35.179688 C 40.394531 35.136719 40.242188 35.054688 40.257812 34.808594 C 40.269531 34.558594 40.453125 34.546875 40.640625 34.546875 C 41.714844 34.546875 42.789062 34.542969 43.863281 34.546875 C 44.027344 34.546875 44.207031 34.542969 44.207031 34.78125 C 44.207031 34.972656 44.144531 35.109375 43.921875 35.171875 C 43.207031 35.378906 43.105469 35.519531 43.101562 36.261719 C 43.097656 37.054688 43.101562 37.847656 43.101562 38.640625 C 43.140625 38.660156 43.183594 38.683594 43.222656 38.703125 C 43.566406 38.355469 43.921875 38.011719 44.253906 37.652344 C 44.792969 37.066406 45.324219 36.472656 45.851562 35.875 C 46.1875 35.5 46.121094 35.304688 45.621094 35.183594 C 45.394531 35.128906 45.210938 35.066406 45.25 34.777344 C 45.289062 34.484375 45.519531 34.550781 45.703125 34.546875 C 46.207031 34.546875 46.710938 34.558594 47.265625 34.5625 Z M 47.265625 34.5625 "/>
<path style=" stroke:none;fill-rule:nonzero;fill:rgb(0%,0%,0%);fill-opacity:1;" d="M 41.964844 46.835938 C 42.902344 46.746094 43.789062 46.703125 44.683594 46.835938 C 46.257812 47.070312 47.207031 48.398438 46.804688 49.84375 C 46.613281 50.53125 46.269531 50.847656 45.097656 51.386719 C 45.882812 52.328125 46.457031 53.410156 47.257812 54.324219 C 47.460938 54.554688 47.734375 54.660156 48.023438 54.730469 C 48.21875 54.78125 48.28125 54.894531 48.261719 55.085938 C 48.242188 55.292969 48.09375 55.300781 47.945312 55.300781 C 47.507812 55.304688 47.066406 55.328125 46.628906 55.292969 C 45.980469 55.242188 45.523438 54.886719 45.195312 54.328125 C 44.753906 53.566406 44.28125 52.828125 43.816406 52.082031 C 43.742188 51.957031 43.65625 51.832031 43.550781 51.734375 C 43.410156 51.601562 43.242188 51.457031 43.03125 51.550781 C 42.851562 51.632812 42.902344 51.832031 42.902344 51.988281 C 42.898438 52.609375 42.917969 53.226562 42.898438 53.84375 C 42.878906 54.355469 43.105469 54.652344 43.59375 54.742188 C 43.785156 54.777344 43.949219 54.808594 43.9375 55.054688 C 43.921875 55.316406 43.726562 55.304688 43.546875 55.304688 C 42.570312 55.304688 41.59375 55.304688 40.617188 55.300781 C 40.441406 55.300781 40.242188 55.324219 40.21875 55.058594 C 40.195312 54.8125 40.347656 54.773438 40.546875 54.746094 C 41.035156 54.679688 41.304688 54.40625 41.304688 53.894531 C 41.300781 51.976562 41.300781 50.054688 41.296875 48.136719 C 41.296875 47.683594 41.054688 47.449219 40.617188 47.402344 C 40.382812 47.378906 40.1875 47.320312 40.21875 47.03125 C 40.25 46.710938 40.503906 46.769531 40.703125 46.773438 C 41.109375 46.785156 41.515625 46.816406 41.964844 46.835938 M 42.898438 48.113281 C 42.898438 48.863281 42.898438 49.613281 42.898438 50.359375 C 42.902344 50.972656 42.914062 50.984375 43.496094 50.882812 C 43.5625 50.871094 43.625 50.863281 43.691406 50.851562 C 44.644531 50.695312 45.199219 50.027344 45.179688 49.050781 C 45.160156 48.144531 44.539062 47.503906 43.574219 47.40625 C 42.980469 47.34375 42.910156 47.410156 42.898438 48.113281 Z M 42.898438 48.113281 "/>
<path style=" stroke:none;fill-rule:nonzero;fill:rgb(0%,0%,0%);fill-opacity:1;" d="M 71.40625 49.675781 C 71.824219 49.519531 72.238281 49.5 72.597656 49.601562 C 73.324219 49.808594 74.035156 49.777344 74.765625 49.683594 C 74.964844 49.65625 75.183594 49.621094 75.386719 49.699219 C 75.386719 50.039062 75.386719 50.371094 75.386719 50.691406 C 74.996094 50.804688 74.734375 50.511719 74.410156 50.515625 C 74.84375 52.320312 73.960938 53.453125 72.050781 53.539062 C 71.800781 53.550781 71.5625 53.585938 71.558594 53.875 C 71.550781 54.160156 71.792969 54.246094 72.035156 54.253906 C 72.488281 54.265625 72.945312 54.257812 73.402344 54.261719 C 74.355469 54.261719 74.945312 54.609375 75.195312 55.308594 C 75.449219 56.019531 75.179688 56.898438 74.441406 57.398438 C 73.285156 58.1875 72.015625 58.359375 70.683594 57.871094 C 70.359375 57.753906 70.085938 57.546875 69.886719 57.253906 C 69.453125 56.628906 69.546875 56.039062 70.175781 55.621094 C 70.460938 55.429688 70.59375 55.296875 70.277344 55 C 69.929688 54.667969 69.984375 54.207031 70.355469 53.839844 C 70.523438 53.671875 70.761719 53.574219 70.902344 53.328125 C 70.828125 53.265625 70.765625 53.195312 70.6875 53.144531 C 69.484375 52.351562 69.648438 50.652344 70.972656 49.882812 C 71.101562 49.808594 71.234375 49.75 71.40625 49.675781 M 71.929688 57.445312 C 72.554688 57.546875 73.160156 57.484375 73.714844 57.152344 C 74.027344 56.960938 74.234375 56.691406 74.167969 56.308594 C 74.105469 55.941406 73.808594 55.796875 73.484375 55.699219 C 72.941406 55.535156 72.386719 55.617188 71.835938 55.601562 C 71.507812 55.59375 71.230469 55.703125 71.058594 56.003906 C 70.875 56.332031 70.988281 56.636719 71.160156 56.917969 C 71.320312 57.179688 71.558594 57.34375 71.929688 57.445312 M 72.894531 50.714844 C 72.738281 50.363281 72.496094 50.109375 72.082031 50.148438 C 71.765625 50.183594 71.558594 50.390625 71.460938 50.691406 C 71.265625 51.304688 71.347656 51.910156 71.601562 52.484375 C 71.757812 52.835938 72.070312 52.96875 72.445312 52.90625 C 72.8125 52.84375 72.996094 52.59375 73.027344 52.230469 C 73.066406 51.746094 73.074219 51.261719 72.894531 50.714844 Z M 72.894531 50.714844 "/>
<path style=" stroke:none;fill-rule:nonzero;fill:rgb(0%,0%,0%);fill-opacity:1;" d="M 58.164062 47.390625 C 58.035156 47.351562 57.941406 47.320312 57.847656 47.304688 C 57.699219 47.28125 57.609375 47.210938 57.605469 47.050781 C 57.605469 46.90625 57.703125 46.863281 57.820312 46.832031 C 58.523438 46.648438 59.222656 46.460938 59.917969 46.277344 C 60.039062 46.480469 59.992188 46.660156 59.992188 46.835938 C 59.996094 49.0625 59.992188 51.289062 59.996094 53.515625 C 59.996094 53.984375 60.054688 54.410156 60.652344 54.46875 C 60.820312 54.484375 60.847656 54.609375 60.859375 54.75 C 60.878906 54.9375 60.765625 55.011719 60.609375 55.050781 C 60 55.203125 59.386719 55.351562 58.78125 55.503906 C 58.484375 54.910156 58.484375 54.910156 57.90625 55.226562 C 56.792969 55.839844 55.363281 55.339844 54.746094 54.097656 C 54.027344 52.640625 54.417969 50.167969 56.773438 49.632812 C 57.207031 49.535156 57.644531 49.558594 58.078125 49.628906 C 58.402344 49.679688 58.574219 49.566406 58.5625 49.210938 C 58.546875 48.820312 58.554688 48.429688 58.558594 48.042969 C 58.5625 47.757812 58.46875 47.53125 58.164062 47.390625 M 57.359375 50.152344 C 56.835938 50.183594 56.496094 50.488281 56.261719 50.925781 C 55.910156 51.589844 55.9375 52.308594 56.027344 53.019531 C 56.09375 53.523438 56.28125 53.996094 56.710938 54.324219 C 57.140625 54.648438 57.574219 54.59375 58.039062 54.386719 C 58.464844 54.199219 58.589844 53.898438 58.566406 53.457031 C 58.539062 52.859375 58.558594 52.257812 58.558594 51.65625 C 58.558594 50.738281 58.304688 50.40625 57.359375 50.152344 Z M 57.359375 50.152344 "/>
<path style=" stroke:none;fill-rule:nonzero;fill:rgb(0%,0%,0%);fill-opacity:1;" d="M 65.917969 40.722656 C 65.914062 40.21875 65.914062 39.761719 65.910156 39.308594 C 65.910156 38.9375 65.773438 38.671875 65.378906 38.609375 C 65.199219 38.578125 65.070312 38.503906 65.050781 38.3125 C 65.023438 38.085938 65.207031 38.046875 65.359375 38 C 66.007812 37.808594 66.660156 37.625 67.304688 37.441406 C 67.527344 37.695312 67.300781 38.027344 67.53125 38.265625 C 67.84375 38.210938 68.027344 37.933594 68.277344 37.773438 C 69.015625 37.292969 69.769531 37.242188 70.53125 37.667969 C 71.257812 38.070312 71.542969 38.722656 71.523438 39.542969 C 71.5 40.453125 71.511719 41.363281 71.519531 42.273438 C 71.527344 42.714844 71.605469 43.132812 72.15625 43.214844 C 72.3125 43.242188 72.371094 43.339844 72.363281 43.488281 C 72.355469 43.664062 72.269531 43.765625 72.089844 43.765625 C 71.195312 43.765625 70.300781 43.765625 69.40625 43.761719 C 69.273438 43.761719 69.144531 43.722656 69.125 43.554688 C 69.105469 43.394531 69.128906 43.265625 69.320312 43.222656 C 69.90625 43.097656 69.953125 42.628906 69.953125 42.164062 C 69.960938 41.351562 69.941406 40.539062 69.914062 39.726562 C 69.894531 39.078125 69.621094 38.71875 69.074219 38.558594 C 68.648438 38.4375 67.851562 38.75 67.601562 39.132812 C 67.503906 39.28125 67.515625 39.441406 67.515625 39.601562 C 67.515625 40.480469 67.519531 41.359375 67.515625 42.238281 C 67.511719 42.714844 67.609375 43.117188 68.167969 43.222656 C 68.351562 43.257812 68.386719 43.390625 68.371094 43.550781 C 68.351562 43.71875 68.234375 43.765625 68.09375 43.765625 C 67.183594 43.769531 66.273438 43.769531 65.363281 43.769531 C 65.1875 43.769531 65.089844 43.6875 65.074219 43.511719 C 65.054688 43.332031 65.148438 43.246094 65.316406 43.210938 C 65.761719 43.113281 65.90625 42.800781 65.90625 42.382812 C 65.90625 41.84375 65.914062 41.308594 65.917969 40.722656 Z M 65.917969 40.722656 "/>
<path style=" stroke:none;fill-rule:nonzero;fill:rgb(0%,0%,0%);fill-opacity:1;" d="M 54.230469 41.691406 C 54.230469 41.96875 54.21875 42.195312 54.238281 42.421875 C 54.277344 42.816406 54.515625 42.941406 54.832031 42.730469 C 54.96875 42.640625 55.074219 42.492188 55.25 42.640625 C 55.453125 42.808594 55.277344 42.957031 55.21875 43.113281 C 54.894531 43.996094 53.429688 44.328125 52.75 43.167969 C 52.515625 43.207031 52.355469 43.382812 52.175781 43.511719 C 51.679688 43.859375 51.125 43.949219 50.546875 43.871094 C 49.449219 43.71875 48.96875 42.398438 49.675781 41.484375 C 50.167969 40.847656 50.890625 40.582031 51.613281 40.324219 C 51.660156 40.304688 51.714844 40.3125 51.753906 40.289062 C 52.027344 40.136719 52.496094 40.265625 52.574219 39.882812 C 52.679688 39.339844 52.644531 38.769531 52.230469 38.320312 C 51.832031 37.890625 51.355469 37.96875 51.101562 38.503906 C 51.023438 38.664062 50.980469 38.839844 50.925781 39.007812 C 50.871094 39.199219 50.792969 39.382812 50.636719 39.507812 C 50.351562 39.726562 50.027344 39.871094 49.699219 39.621094 C 49.375 39.375 49.382812 38.996094 49.570312 38.695312 C 50.335938 37.484375 52.351562 36.816406 53.613281 37.917969 C 54.023438 38.277344 54.226562 38.753906 54.230469 39.304688 C 54.234375 40.082031 54.230469 40.863281 54.230469 41.691406 M 51.609375 41.101562 C 51.335938 41.28125 51.085938 41.480469 50.972656 41.808594 C 50.816406 42.253906 50.996094 42.695312 51.382812 42.808594 C 51.726562 42.90625 52.554688 42.5625 52.578125 42.265625 C 52.617188 41.789062 52.589844 41.308594 52.589844 40.824219 C 52.207031 40.769531 51.945312 40.9375 51.609375 41.101562 Z M 51.609375 41.101562 "/>
<path style=" stroke:none;fill-rule:nonzero;fill:rgb(0%,0%,0%);fill-opacity:1;" d="M 76.574219 37.546875 C 77.414062 37.925781 77.753906 38.578125 77.757812 39.433594 C 77.761719 40.359375 77.753906 41.289062 77.761719 42.214844 C 77.765625 42.859375 77.90625 42.949219 78.457031 42.640625 C 78.574219 42.578125 78.664062 42.558594 78.757812 42.652344 C 78.875 42.765625 78.820312 42.890625 78.761719 43.011719 C 78.542969 43.449219 78.265625 43.820312 77.730469 43.878906 C 77.179688 43.9375 76.691406 43.84375 76.390625 43.304688 C 76.359375 43.25 76.316406 43.203125 76.277344 43.152344 C 76.066406 43.160156 75.953125 43.3125 75.8125 43.414062 C 75.367188 43.746094 74.878906 43.917969 74.3125 43.890625 C 73.746094 43.859375 73.300781 43.628906 73.042969 43.128906 C 72.765625 42.59375 72.828125 42.054688 73.175781 41.5625 C 73.730469 40.777344 74.585938 40.5 75.449219 40.246094 C 76.167969 40.035156 76.164062 40.039062 76.140625 39.289062 C 76.132812 39.089844 76.089844 38.898438 76.011719 38.722656 C 75.859375 38.363281 75.632812 38.03125 75.203125 38.050781 C 74.785156 38.070312 74.625 38.421875 74.535156 38.789062 C 74.441406 39.15625 74.332031 39.515625 73.925781 39.667969 C 73.664062 39.769531 73.414062 39.769531 73.195312 39.574219 C 72.976562 39.371094 72.976562 39.109375 73.058594 38.851562 C 73.136719 38.613281 73.292969 38.421875 73.480469 38.257812 C 74.371094 37.476562 75.367188 37.136719 76.574219 37.546875 M 75.28125 42.804688 C 75.582031 42.664062 76.023438 42.65625 76.101562 42.28125 C 76.199219 41.800781 76.160156 41.296875 76.105469 40.804688 C 75.480469 40.871094 74.863281 41.207031 74.617188 41.601562 C 74.441406 41.875 74.378906 42.167969 74.53125 42.476562 C 74.667969 42.761719 74.898438 42.867188 75.28125 42.804688 Z M 75.28125 42.804688 "/>
<path style=" stroke:none;fill-rule:nonzero;fill:rgb(0%,0%,0%);fill-opacity:1;" d="M 78.183594 55.457031 C 77.183594 55.222656 76.730469 54.664062 76.722656 53.691406 C 76.722656 52.894531 76.734375 52.097656 76.71875 51.300781 C 76.710938 50.890625 76.683594 50.46875 76.125 50.394531 C 75.945312 50.371094 75.90625 50.21875 75.917969 50.058594 C 75.933594 49.882812 76.074219 49.875 76.203125 49.863281 C 76.753906 49.808594 77.300781 49.75 77.851562 49.703125 C 78.15625 49.675781 78.132812 49.910156 78.132812 50.101562 C 78.136719 51.109375 78.136719 52.117188 78.136719 53.125 C 78.140625 53.335938 78.136719 53.546875 78.160156 53.757812 C 78.214844 54.265625 78.59375 54.582031 79.089844 54.550781 C 79.71875 54.515625 80.144531 54.15625 80.144531 53.652344 C 80.152344 52.789062 80.148438 51.925781 80.144531 51.066406 C 80.144531 50.753906 80.09375 50.472656 79.707031 50.417969 C 79.386719 50.375 79.433594 50.160156 79.488281 49.898438 C 80.148438 49.835938 80.820312 49.769531 81.472656 49.707031 C 81.617188 49.914062 81.574219 50.113281 81.574219 50.304688 C 81.578125 51.476562 81.585938 52.644531 81.570312 53.816406 C 81.566406 54.21875 81.652344 54.492188 82.125 54.476562 C 82.300781 54.46875 82.394531 54.5625 82.417969 54.734375 C 82.445312 54.925781 82.359375 55.054688 82.175781 55.09375 C 81.5625 55.230469 80.960938 55.414062 80.351562 55.453125 C 80.167969 55.273438 80.308594 55.039062 80.140625 54.84375 C 79.570312 55.234375 78.96875 55.589844 78.183594 55.457031 Z M 78.183594 55.457031 "/>
<path style=" stroke:none;fill-rule:nonzero;fill:rgb(0%,0%,0%);fill-opacity:1;" d="M 53.511719 53.972656 C 52.324219 55.847656 49.886719 56.015625 48.601562 54.34375 C 47.90625 53.4375 47.851562 51.9375 48.476562 50.890625 C 49.050781 49.929688 50.296875 49.394531 51.476562 49.597656 C 52.699219 49.804688 53.5625 50.621094 53.796875 51.855469 C 53.929688 52.566406 53.882812 53.28125 53.511719 53.972656 M 50.675781 54.757812 C 51.246094 54.925781 51.703125 54.789062 51.941406 54.261719 C 52.480469 53.089844 52.460938 51.902344 51.84375 50.753906 C 51.640625 50.382812 51.296875 50.125 50.851562 50.152344 C 50.394531 50.183594 50.078125 50.472656 49.902344 50.894531 C 49.515625 51.820312 49.574219 52.761719 49.835938 53.703125 C 49.960938 54.144531 50.207031 54.496094 50.675781 54.757812 Z M 50.675781 54.757812 "/>
<path style=" stroke:none;fill-rule:nonzero;fill:rgb(0%,0%,0%);fill-opacity:1;" d="M 83.8125 50.007812 C 85.191406 49.210938 86.664062 49.523438 87.316406 50.722656 C 87.363281 50.808594 87.40625 50.898438 87.4375 50.988281 C 87.832031 52.003906 87.726562 52.164062 86.65625 52.160156 C 85.957031 52.160156 85.257812 52.15625 84.558594 52.164062 C 84.023438 52.171875 83.933594 52.28125 84.042969 52.8125 C 84.191406 53.503906 84.4375 54.15625 85.175781 54.398438 C 85.914062 54.644531 86.542969 54.378906 87.0625 53.820312 C 87.105469 53.773438 87.164062 53.746094 87.222656 53.707031 C 87.601562 53.910156 87.597656 54.140625 87.351562 54.449219 C 86.128906 56 83.839844 55.78125 82.9375 54.019531 C 82.226562 52.628906 82.582031 50.941406 83.8125 50.007812 M 85.898438 51.414062 C 86.203125 51.265625 86.125 51.015625 86.039062 50.789062 C 85.863281 50.328125 85.414062 50.058594 85.011719 50.144531 C 84.566406 50.238281 84.191406 50.824219 84.21875 51.390625 C 84.75 51.476562 85.285156 51.4375 85.898438 51.414062 Z M 85.898438 51.414062 "/>
<path style=" stroke:none;fill-rule:nonzero;fill:rgb(0%,0%,0%);fill-opacity:1;" d="M 55.605469 38.132812 C 56.367188 37.816406 57.128906 37.621094 57.90625 37.433594 C 58.109375 37.796875 57.9375 38.171875 58.089844 38.546875 C 58.335938 38.273438 58.542969 38.003906 58.785156 37.773438 C 59.410156 37.175781 60.40625 37.398438 60.636719 38.179688 C 60.746094 38.558594 60.65625 38.898438 60.332031 39.132812 C 60.035156 39.347656 59.722656 39.328125 59.429688 39.101562 C 59.234375 38.953125 59.066406 38.65625 58.769531 38.859375 C 58.433594 39.085938 58.070312 39.347656 58.054688 39.792969 C 58.023438 40.683594 58.039062 41.582031 58.050781 42.472656 C 58.054688 42.890625 58.296875 43.132812 58.699219 43.207031 C 58.898438 43.242188 59.035156 43.3125 59 43.554688 C 58.960938 43.785156 58.785156 43.769531 58.625 43.769531 C 57.75 43.773438 56.871094 43.769531 55.992188 43.769531 C 55.824219 43.769531 55.664062 43.75 55.640625 43.527344 C 55.617188 43.320312 55.730469 43.234375 55.90625 43.191406 C 56.308594 43.089844 56.441406 42.804688 56.441406 42.421875 C 56.441406 41.398438 56.441406 40.375 56.4375 39.351562 C 56.4375 38.953125 56.300781 38.65625 55.847656 38.59375 C 55.609375 38.5625 55.527344 38.398438 55.605469 38.132812 Z M 55.605469 38.132812 "/>
<path style=" stroke:none;fill-rule:nonzero;fill:rgb(0%,0%,0%);fill-opacity:1;" d="M 92.152344 53.007812 C 92.585938 54.550781 91.464844 55.703125 89.800781 55.476562 C 89.753906 55.472656 89.707031 55.460938 89.660156 55.449219 C 88.136719 55.121094 88.496094 55.304688 88.445312 53.945312 C 88.441406 53.785156 88.371094 53.558594 88.632812 53.511719 C 88.867188 53.464844 88.933594 53.640625 89.003906 53.8125 C 89.167969 54.203125 89.433594 54.5 89.800781 54.707031 C 89.960938 54.792969 90.125 54.847656 90.308594 54.855469 C 90.636719 54.871094 90.878906 54.753906 91.019531 54.449219 C 91.15625 54.15625 91.046875 53.910156 90.847656 53.691406 C 90.566406 53.382812 90.167969 53.261719 89.808594 53.078125 C 89.398438 52.871094 89 52.652344 88.726562 52.269531 C 87.972656 51.214844 88.625 49.8125 89.972656 49.59375 C 90.5625 49.5 91.132812 49.636719 91.703125 49.785156 C 91.878906 49.832031 91.921875 49.957031 91.921875 50.113281 C 91.929688 50.40625 91.929688 50.699219 91.933594 50.992188 C 91.9375 51.125 91.949219 51.261719 91.765625 51.285156 C 91.621094 51.304688 91.515625 51.253906 91.449219 51.117188 C 91.304688 50.824219 91.136719 50.546875 90.84375 50.371094 C 90.382812 50.089844 89.902344 50.140625 89.679688 50.503906 C 89.460938 50.859375 89.609375 51.257812 90.101562 51.542969 C 90.464844 51.753906 90.851562 51.925781 91.226562 52.121094 C 91.605469 52.320312 91.945312 52.566406 92.152344 53.007812 Z M 92.152344 53.007812 "/>
<path style=" stroke:none;fill-rule:nonzero;fill:rgb(0%,0%,0%);fill-opacity:1;" d="M 59.011719 60.25 C 59.34375 60.261719 59.636719 60.292969 59.925781 60.28125 C 60.160156 60.273438 60.230469 60.417969 60.304688 60.589844 C 60.550781 61.171875 60.804688 61.753906 61.046875 62.335938 C 61.121094 62.507812 61.203125 62.6875 61.402344 62.699219 C 61.636719 62.710938 61.652344 62.480469 61.714844 62.324219 C 61.953125 61.722656 62.308594 61.164062 62.386719 60.503906 C 62.402344 60.339844 62.527344 60.289062 62.664062 60.285156 C 62.972656 60.269531 63.28125 60.265625 63.589844 60.265625 C 63.699219 60.265625 63.828125 60.277344 63.867188 60.410156 C 63.90625 60.542969 63.835938 60.625 63.71875 60.675781 C 63.449219 60.796875 63.40625 61.039062 63.417969 61.289062 C 63.445312 62.050781 63.46875 62.816406 63.527344 63.574219 C 63.550781 63.847656 63.566406 64.179688 63.949219 64.265625 C 64.050781 64.289062 64.101562 64.378906 64.09375 64.492188 C 64.078125 64.644531 63.964844 64.667969 63.847656 64.667969 C 63.359375 64.671875 62.871094 64.671875 62.386719 64.667969 C 62.273438 64.664062 62.144531 64.664062 62.117188 64.515625 C 62.09375 64.394531 62.179688 64.339844 62.269531 64.296875 C 62.554688 64.164062 62.597656 63.914062 62.585938 63.640625 C 62.570312 63.136719 62.550781 62.628906 62.464844 62.121094 C 61.859375 62.898438 61.753906 63.914062 61.078125 64.785156 C 60.660156 63.839844 60.296875 63.019531 59.9375 62.203125 C 59.664062 62.269531 59.707031 62.457031 59.695312 62.609375 C 59.675781 62.933594 59.671875 63.257812 59.644531 63.582031 C 59.621094 63.878906 59.65625 64.132812 59.980469 64.253906 C 60.09375 64.300781 60.171875 64.394531 60.140625 64.523438 C 60.105469 64.660156 59.980469 64.667969 59.863281 64.667969 C 59.539062 64.667969 59.214844 64.667969 58.890625 64.664062 C 58.777344 64.664062 58.648438 64.664062 58.605469 64.53125 C 58.558594 64.398438 58.632812 64.304688 58.746094 64.257812 C 59.09375 64.105469 59.117188 63.785156 59.136719 63.480469 C 59.191406 62.765625 59.21875 62.054688 59.265625 61.339844 C 59.28125 61.042969 59.25 60.808594 58.933594 60.65625 C 58.691406 60.542969 58.695312 60.367188 59.011719 60.25 Z M 59.011719 60.25 "/>
<path style=" stroke:none;fill-rule:nonzero;fill:rgb(0%,0%,0%);fill-opacity:1;" d="M 65.847656 50.648438 C 65.5625 51.292969 65.167969 51.449219 64.703125 51.152344 C 64.527344 51.039062 64.398438 50.746094 64.128906 50.925781 C 63.859375 51.109375 63.546875 51.316406 63.53125 51.660156 C 63.496094 52.503906 63.503906 53.347656 63.535156 54.191406 C 63.546875 54.503906 63.753906 54.730469 64.105469 54.761719 C 64.304688 54.78125 64.457031 54.863281 64.433594 55.09375 C 64.414062 55.332031 64.21875 55.300781 64.0625 55.304688 C 63.234375 55.308594 62.402344 55.308594 61.574219 55.304688 C 61.417969 55.304688 61.234375 55.316406 61.210938 55.078125 C 61.191406 54.875 61.296875 54.785156 61.484375 54.75 C 61.914062 54.671875 62.066406 54.359375 62.070312 53.96875 C 62.082031 53.15625 62.078125 52.34375 62.070312 51.53125 C 62.066406 51.105469 61.914062 50.769531 61.449219 50.660156 C 61.320312 50.628906 61.214844 50.558594 61.207031 50.394531 C 61.203125 50.238281 61.277344 50.140625 61.414062 50.101562 C 62.050781 49.921875 62.6875 49.746094 63.316406 49.574219 C 63.527344 49.871094 63.285156 50.230469 63.550781 50.492188 C 63.804688 50.351562 63.921875 50.089844 64.113281 49.898438 C 64.449219 49.566406 64.835938 49.488281 65.277344 49.652344 C 65.71875 49.816406 65.898438 50.144531 65.847656 50.648438 Z M 65.847656 50.648438 "/>
<path style=" stroke:none;fill-rule:nonzero;fill:rgb(0%,0%,0%);fill-opacity:1;" d="M 63.75 42.757812 C 63.851562 43.011719 64.019531 43.121094 64.246094 43.160156 C 64.433594 43.195312 64.585938 43.261719 64.574219 43.503906 C 64.558594 43.761719 64.378906 43.769531 64.195312 43.769531 C 63.316406 43.773438 62.4375 43.773438 61.5625 43.773438 C 61.394531 43.773438 61.230469 43.761719 61.207031 43.53125 C 61.1875 43.324219 61.296875 43.242188 61.480469 43.203125 C 61.929688 43.105469 62.066406 42.765625 62.070312 42.367188 C 62.082031 41.355469 62.078125 40.347656 62.070312 39.339844 C 62.070312 38.957031 61.910156 38.679688 61.503906 38.605469 C 61.351562 38.578125 61.222656 38.523438 61.207031 38.339844 C 61.195312 38.199219 61.226562 38.074219 61.375 38.027344 C 62.113281 37.796875 62.855469 37.570312 63.734375 37.296875 C 63.734375 39.164062 63.734375 40.941406 63.75 42.757812 Z M 63.75 42.757812 "/>
<path style=" stroke:none;fill-rule:nonzero;fill:rgb(0%,0%,0%);fill-opacity:1;" d="M 48.195312 61.515625 C 48.722656 63.351562 47.738281 64.675781 45.871094 64.679688 C 45.300781 64.679688 44.734375 64.679688 44.164062 64.671875 C 44.039062 64.667969 43.882812 64.691406 43.851562 64.515625 C 43.820312 64.359375 43.957031 64.332031 44.054688 64.285156 C 44.316406 64.167969 44.390625 63.953125 44.390625 63.6875 C 44.390625 62.890625 44.394531 62.09375 44.390625 61.296875 C 44.390625 61.019531 44.308594 60.777344 44.015625 60.679688 C 43.890625 60.636719 43.816406 60.570312 43.839844 60.433594 C 43.863281 60.289062 43.980469 60.257812 44.09375 60.261719 C 44.988281 60.269531 45.886719 60.175781 46.765625 60.386719 C 47.398438 60.535156 47.898438 60.871094 48.195312 61.515625 M 47.015625 61.347656 C 46.769531 60.960938 46.390625 60.792969 45.96875 60.703125 C 45.480469 60.601562 45.347656 60.710938 45.34375 61.207031 C 45.339844 61.953125 45.339844 62.699219 45.34375 63.445312 C 45.351562 64.191406 45.742188 64.4375 46.429688 64.140625 C 46.792969 63.980469 47.027344 63.703125 47.160156 63.335938 C 47.398438 62.679688 47.398438 62.035156 47.015625 61.347656 Z M 47.015625 61.347656 "/>
<path style=" stroke:none;fill-rule:nonzero;fill:rgb(0%,0%,0%);fill-opacity:1;" d="M 67.148438 52.160156 C 67.136719 51.871094 67.125 51.628906 67.113281 51.382812 C 67.09375 51.03125 66.976562 50.753906 66.589844 50.664062 C 66.449219 50.628906 66.308594 50.566406 66.304688 50.378906 C 66.300781 50.15625 66.472656 50.125 66.625 50.074219 C 67.238281 49.875 67.851562 49.671875 68.445312 49.476562 C 68.632812 49.6875 68.574219 49.890625 68.574219 50.074219 C 68.582031 51.359375 68.578125 52.648438 68.578125 53.933594 C 68.578125 54.332031 68.644531 54.683594 69.128906 54.769531 C 69.304688 54.804688 69.351562 54.941406 69.332031 55.105469 C 69.308594 55.277344 69.175781 55.300781 69.039062 55.300781 C 68.226562 55.300781 67.414062 55.300781 66.601562 55.300781 C 66.460938 55.300781 66.335938 55.269531 66.3125 55.101562 C 66.289062 54.933594 66.34375 54.796875 66.519531 54.773438 C 67.09375 54.6875 67.121094 54.242188 67.140625 53.820312 C 67.167969 53.285156 67.148438 52.746094 67.148438 52.160156 Z M 67.148438 52.160156 "/>
<path style=" stroke:none;fill-rule:nonzero;fill:rgb(0%,0%,0%);fill-opacity:1;" d="M 57.347656 63.066406 C 56.894531 64.324219 55.816406 64.976562 54.648438 64.738281 C 53.523438 64.507812 52.824219 63.675781 52.8125 62.542969 C 52.796875 61.453125 53.519531 60.496094 54.554688 60.230469 C 56.320312 59.777344 57.761719 61.214844 57.347656 63.066406 M 54.210938 61.105469 C 53.785156 61.976562 53.773438 62.859375 54.222656 63.714844 C 54.433594 64.109375 54.804688 64.339844 55.269531 64.3125 C 55.746094 64.28125 56.042969 63.960938 56.1875 63.546875 C 56.4375 62.835938 56.441406 62.097656 56.136719 61.40625 C 55.757812 60.542969 54.898438 60.394531 54.210938 61.105469 Z M 54.210938 61.105469 "/>
<path style=" stroke:none;fill-rule:nonzero;fill:rgb(0%,0%,0%);fill-opacity:1;" d="M 67.523438 64.621094 C 67.429688 64.476562 67.449219 64.363281 67.570312 64.304688 C 67.910156 64.140625 67.847656 63.890625 67.757812 63.605469 C 67.660156 63.285156 67.453125 63.175781 67.136719 63.179688 C 66.722656 63.1875 66.261719 63.074219 66.148438 63.683594 C 66.105469 63.902344 66.050781 64.097656 66.28125 64.246094 C 66.382812 64.308594 66.441406 64.414062 66.402344 64.539062 C 66.359375 64.675781 66.230469 64.667969 66.117188 64.671875 C 65.84375 64.671875 65.5625 64.683594 65.289062 64.65625 C 65.023438 64.628906 64.914062 64.4375 65.144531 64.273438 C 65.597656 63.953125 65.726562 63.46875 65.898438 63 C 66.160156 62.28125 66.433594 61.566406 66.652344 60.835938 C 66.785156 60.386719 67.207031 60.46875 67.484375 60.191406 C 67.839844 61.167969 68.148438 62.070312 68.496094 62.957031 C 68.691406 63.457031 68.742188 64.058594 69.335938 64.316406 C 69.417969 64.355469 69.453125 64.433594 69.429688 64.519531 C 69.394531 64.667969 69.269531 64.667969 69.15625 64.667969 C 68.621094 64.664062 68.085938 64.652344 67.523438 64.621094 M 66.734375 62.679688 C 66.933594 62.683594 67.234375 62.800781 67.289062 62.554688 C 67.347656 62.277344 67.261719 61.957031 66.941406 61.746094 C 66.765625 62.046875 66.492188 62.277344 66.734375 62.679688 Z M 66.734375 62.679688 "/>
<path style=" stroke:none;fill-rule:nonzero;fill:rgb(0%,0%,0%);fill-opacity:1;" d="M 70.824219 63.375 C 71.007812 63.722656 71.171875 64.046875 71.511719 64.21875 C 71.855469 64.398438 72.195312 64.378906 72.414062 64.042969 C 72.632812 63.710938 72.554688 63.371094 72.230469 63.140625 C 71.953125 62.949219 71.636719 62.8125 71.339844 62.640625 C 70.675781 62.261719 70.414062 61.667969 70.632812 61.0625 C 70.84375 60.484375 71.558594 60.085938 72.214844 60.179688 C 72.296875 60.191406 72.375 60.207031 72.457031 60.21875 C 73.210938 60.339844 73.40625 60.757812 73.046875 61.480469 C 72.835938 61.515625 72.828125 61.328125 72.761719 61.210938 C 72.632812 60.976562 72.46875 60.769531 72.207031 60.691406 C 71.914062 60.605469 71.613281 60.597656 71.433594 60.910156 C 71.238281 61.242188 71.4375 61.480469 71.6875 61.648438 C 71.957031 61.828125 72.261719 61.953125 72.546875 62.109375 C 73.222656 62.480469 73.496094 63.023438 73.335938 63.667969 C 73.179688 64.304688 72.613281 64.738281 71.898438 64.765625 C 71.535156 64.777344 71.1875 64.691406 70.84375 64.589844 C 70.527344 64.496094 70.308594 63.511719 70.558594 63.289062 C 70.632812 63.21875 70.742188 63.25 70.824219 63.375 Z M 70.824219 63.375 "/>
<path style=" stroke:none;fill-rule:nonzero;fill:rgb(0%,0%,0%);fill-opacity:1;" d="M 49.769531 60.683594 C 49.585938 60.644531 49.480469 60.566406 49.527344 60.40625 C 49.5625 60.277344 49.691406 60.253906 49.808594 60.269531 C 50.339844 60.34375 50.875 60.3125 51.410156 60.300781 C 51.511719 60.300781 51.617188 60.316406 51.644531 60.429688 C 51.679688 60.566406 51.597656 60.644531 51.46875 60.667969 C 51.132812 60.734375 51.097656 60.980469 51.097656 61.257812 C 51.101562 62.054688 51.105469 62.847656 51.097656 63.644531 C 51.09375 63.957031 51.121094 64.234375 51.488281 64.328125 C 51.570312 64.351562 51.636719 64.394531 51.636719 64.492188 C 51.640625 64.589844 51.582031 64.65625 51.496094 64.65625 C 50.851562 64.664062 50.203125 64.742188 49.566406 64.605469 C 49.546875 64.597656 49.535156 64.550781 49.492188 64.460938 C 50.378906 64.152344 50.0625 63.390625 50.101562 62.757812 C 50.128906 62.273438 50.113281 61.785156 50.101562 61.300781 C 50.09375 61.058594 50.101562 60.796875 49.769531 60.683594 Z M 49.769531 60.683594 "/>
<path style=" stroke:none;fill-rule:nonzero;fill:rgb(0%,0%,0%);fill-opacity:1;" d="M 42.527344 60.289062 C 42.75 60.457031 42.703125 60.59375 42.5 60.65625 C 42.210938 60.742188 42.128906 60.945312 42.125 61.210938 C 42.125 62.058594 42.140625 62.902344 42.117188 63.75 C 42.105469 64.160156 42.445312 64.257812 42.664062 64.433594 C 42.671875 64.628906 42.5625 64.664062 42.441406 64.667969 C 41.921875 64.671875 41.402344 64.671875 40.882812 64.667969 C 40.769531 64.664062 40.644531 64.65625 40.628906 64.5 C 40.617188 64.375 40.710938 64.332031 40.804688 64.304688 C 41.132812 64.199219 41.1875 63.953125 41.183594 63.652344 C 41.171875 62.855469 41.175781 62.058594 41.179688 61.261719 C 41.179688 60.980469 41.136719 60.734375 40.804688 60.667969 C 40.671875 60.644531 40.59375 60.566406 40.621094 60.429688 C 40.652344 60.25 40.804688 60.269531 40.929688 60.285156 C 41.453125 60.347656 41.96875 60.304688 42.527344 60.289062 Z M 42.527344 60.289062 "/>
<path style=" stroke:none;fill-rule:nonzero;fill:rgb(0%,0%,0%);fill-opacity:1;" d="M 63.757812 35.789062 C 63.632812 36.234375 63.402344 36.523438 62.949219 36.570312 C 62.519531 36.617188 62.1875 36.441406 61.96875 36.070312 C 61.761719 35.714844 61.777344 35.355469 62 35.011719 C 62.261719 34.613281 62.65625 34.554688 63.078125 34.65625 C 63.53125 34.761719 63.75 35.132812 63.757812 35.789062 Z M 63.757812 35.789062 "/>
<path style=" stroke:none;fill-rule:nonzero;fill:rgb(0%,0%,0%);fill-opacity:1;" d="M 67.054688 48.257812 C 66.871094 47.839844 66.855469 47.464844 67.148438 47.136719 C 67.367188 46.890625 67.65625 46.785156 67.980469 46.875 C 68.390625 46.988281 68.65625 47.242188 68.683594 47.691406 C 68.707031 48.097656 68.582031 48.453125 68.183594 48.601562 C 67.761719 48.761719 67.355469 48.714844 67.054688 48.257812 Z M 67.054688 48.257812 "/>
</g>
</svg>
